<svg xmlns="http://www.w3.org/2000/svg" viewBox="0 0 32 32">
  <!-- Mintzo favicon — lauburu R3, coupe optique petites tailles (canaux élargis).
       Gorri Etxea light #9B2D23, dark #D96A5B. -->
  <style>path{fill:#9B2D23}@media(prefers-color-scheme:dark){path{fill:#D96A5B}}</style>
  <path d="M 13.189 1.251 C 12.600 1.701 12.079 2.235 11.645 2.836 C 11.242 3.395 10.917 4.008 10.683 4.656 C 10.482 5.214 10.350 5.794 10.291 6.383 C 10.245 6.846 10.244 7.313 10.287 7.776 C 10.318 8.114 10.372 8.449 10.441 8.782 C 10.493 9.028 10.552 9.273 10.612 9.518 C 10.664 9.732 10.716 9.946 10.762 10.162 C 10.810 10.385 10.852 10.609 10.887 10.835 C 10.924 11.082 10.952 11.330 10.974 11.579 C 10.996 11.849 11.010 12.120 11.019 12.391 C 11.028 12.677 11.032 12.964 11.036 13.251 C 11.041 13.552 11.047 13.854 11.064 14.155 A 0.707 0.707 0 0 0 11.808 14.822 A 0.707 0.707 0 0 0 12.474 14.077 C 12.460 13.814 12.456 13.551 12.474 13.288 C 12.491 13.043 12.526 12.798 12.586 12.559 C 12.641 12.342 12.716 12.130 12.815 11.930 C 12.899 11.760 13.001 11.599 13.122 11.452 C 13.216 11.337 13.323 11.232 13.440 11.141 C 13.532 11.070 13.630 11.008 13.734 10.956 C 13.839 10.903 13.950 10.859 14.061 10.819 C 14.226 10.762 14.392 10.712 14.560 10.662 C 14.819 10.584 15.078 10.507 15.334 10.421 C 15.687 10.304 16.035 10.175 16.377 10.029 C 16.790 9.852 17.194 9.652 17.584 9.428 C 18.010 9.183 18.420 8.911 18.811 8.612 A 4.631 4.631 0 0 0 20.593 4.338 A 4.631 4.631 0 0 0 17.782 0.657 A 4.631 4.631 0 0 0 13.189 1.251 Z M 30.749 13.189 C 30.299 12.600 29.765 12.079 29.164 11.645 C 28.605 11.242 27.992 10.917 27.344 10.683 C 26.786 10.482 26.206 10.350 25.617 10.291 C 25.154 10.245 24.687 10.244 24.224 10.287 C 23.886 10.318 23.551 10.372 23.218 10.441 C 22.972 10.493 22.727 10.552 22.482 10.612 C 22.268 10.664 22.054 10.716 21.838 10.762 C 21.615 10.810 21.391 10.852 21.165 10.887 C 20.918 10.924 20.670 10.952 20.421 10.974 C 20.151 10.996 19.880 11.010 19.609 11.019 C 19.323 11.028 19.036 11.032 18.749 11.036 C 18.448 11.041 18.146 11.047 17.845 11.064 A 0.707 0.707 0 0 0 17.178 11.808 A 0.707 0.707 0 0 0 17.923 12.474 C 18.186 12.460 18.449 12.456 18.712 12.474 C 18.957 12.491 19.202 12.526 19.441 12.586 C 19.658 12.641 19.870 12.716 20.070 12.815 C 20.240 12.899 20.401 13.001 20.548 13.122 C 20.663 13.216 20.768 13.323 20.859 13.440 C 20.930 13.532 20.992 13.630 21.044 13.734 C 21.097 13.839 21.141 13.950 21.181 14.061 C 21.238 14.226 21.288 14.392 21.338 14.560 C 21.416 14.819 21.493 15.078 21.579 15.334 C 21.696 15.687 21.825 16.035 21.971 16.377 C 22.148 16.790 22.348 17.194 22.572 17.584 C 22.817 18.010 23.089 18.420 23.388 18.811 A 4.631 4.631 0 0 0 27.662 20.593 A 4.631 4.631 0 0 0 31.343 17.782 A 4.631 4.631 0 0 0 30.749 13.189 Z M 18.811 30.749 C 19.400 30.299 19.921 29.765 20.355 29.164 C 20.758 28.605 21.083 27.992 21.317 27.344 C 21.518 26.786 21.650 26.206 21.709 25.617 C 21.755 25.154 21.756 24.687 21.713 24.224 C 21.682 23.886 21.628 23.551 21.559 23.218 C 21.507 22.972 21.448 22.727 21.388 22.482 C 21.336 22.268 21.284 22.054 21.238 21.838 C 21.190 21.615 21.148 21.391 21.113 21.165 C 21.076 20.918 21.048 20.670 21.026 20.421 C 21.004 20.151 20.990 19.880 20.981 19.609 C 20.972 19.323 20.968 19.036 20.964 18.749 C 20.959 18.448 20.953 18.146 20.936 17.845 A 0.707 0.707 0 0 0 20.192 17.178 A 0.707 0.707 0 0 0 19.526 17.923 C 19.540 18.186 19.544 18.449 19.526 18.712 C 19.509 18.957 19.474 19.202 19.414 19.441 C 19.359 19.658 19.284 19.870 19.185 20.070 C 19.101 20.240 18.999 20.401 18.878 20.548 C 18.784 20.663 18.677 20.768 18.560 20.859 C 18.468 20.930 18.370 20.992 18.266 21.044 C 18.161 21.097 18.050 21.141 17.939 21.181 C 17.774 21.238 17.608 21.288 17.440 21.338 C 17.181 21.416 16.922 21.493 16.666 21.579 C 16.313 21.696 15.965 21.825 15.623 21.971 C 15.210 22.148 14.806 22.348 14.416 22.572 C 13.990 22.817 13.580 23.089 13.189 23.388 A 4.631 4.631 0 0 0 11.407 27.662 A 4.631 4.631 0 0 0 14.218 31.343 A 4.631 4.631 0 0 0 18.811 30.749 Z M 1.251 18.811 C 1.701 19.400 2.235 19.921 2.836 20.355 C 3.395 20.758 4.008 21.083 4.656 21.317 C 5.214 21.518 5.794 21.650 6.383 21.709 C 6.846 21.755 7.313 21.756 7.776 21.713 C 8.114 21.682 8.449 21.628 8.782 21.559 C 9.028 21.507 9.273 21.448 9.518 21.388 C 9.732 21.336 9.946 21.284 10.162 21.238 C 10.385 21.190 10.609 21.148 10.835 21.113 C 11.082 21.076 11.330 21.048 11.579 21.026 C 11.849 21.004 12.120 20.990 12.391 20.981 C 12.677 20.972 12.964 20.968 13.251 20.964 C 13.552 20.959 13.854 20.953 14.155 20.936 A 0.707 0.707 0 0 0 14.822 20.192 A 0.707 0.707 0 0 0 14.077 19.526 C 13.814 19.540 13.551 19.544 13.288 19.526 C 13.043 19.509 12.798 19.474 12.559 19.414 C 12.342 19.359 12.130 19.284 11.930 19.185 C 11.760 19.101 11.599 18.999 11.452 18.878 C 11.337 18.784 11.232 18.677 11.141 18.560 C 11.070 18.468 11.008 18.370 10.956 18.266 C 10.903 18.161 10.859 18.050 10.819 17.939 C 10.762 17.774 10.712 17.608 10.662 17.440 C 10.584 17.181 10.507 16.922 10.421 16.666 C 10.304 16.313 10.175 15.965 10.029 15.623 C 9.852 15.210 9.652 14.806 9.428 14.416 C 9.183 13.990 8.911 13.580 8.612 13.189 A 4.631 4.631 0 0 0 4.338 11.407 A 4.631 4.631 0 0 0 0.657 14.218 A 4.631 4.631 0 0 0 1.251 18.811 Z"/>
</svg>
