<svg xmlns="http://www.w3.org/2000/svg" viewBox="0 0 32 32">
  <!-- Mintzo favicon — lauburu R4 (4 glyphes virgule Fraunces Black), coupe
       optique petites tailles. Gorri light #9B2D23, dark #D96A5B. -->
  <style>path{fill:#9B2D23}@media(prefers-color-scheme:dark){path{fill:#D96A5B}}</style>
  <path d="M 15.588 7.123 Q 13.906 7.123 13.096 6.219 Q 12.286 5.315 12.286 3.916 Q 12.286 2.375 13.347 1.338 Q 14.409 0.300 15.996 0.300 Q 17.726 0.300 18.897 1.518 Q 20.069 2.737 20.069 5.221 Q 20.069 6.825 19.660 8.122 Q 19.251 9.419 18.457 10.401 Q 17.663 11.384 16.492 12.052 Q 15.321 12.720 13.795 13.066 Q 12.962 13.255 12.506 13.114 Q 12.050 12.972 11.956 12.595 Q 11.862 12.186 12.129 11.848 Q 12.396 11.510 13.198 11.274 Q 14.644 10.850 15.517 10.307 Q 16.390 9.765 16.783 9.104 Q 17.176 8.444 17.176 7.674 Q 17.176 7.406 17.034 7.265 Q 16.893 7.123 16.531 7.123 Z M 24.877 15.588 Q 24.877 13.906 25.781 13.096 Q 26.685 12.286 28.084 12.286 Q 29.625 12.286 30.662 13.347 Q 31.700 14.409 31.700 15.996 Q 31.700 17.726 30.482 18.897 Q 29.263 20.069 26.779 20.069 Q 25.175 20.069 23.878 19.660 Q 22.581 19.251 21.599 18.457 Q 20.616 17.663 19.948 16.492 Q 19.280 15.321 18.934 13.795 Q 18.745 12.962 18.886 12.506 Q 19.028 12.050 19.405 11.956 Q 19.814 11.862 20.152 12.129 Q 20.490 12.396 20.726 13.198 Q 21.150 14.644 21.693 15.517 Q 22.235 16.390 22.896 16.783 Q 23.556 17.176 24.326 17.176 Q 24.594 17.176 24.735 17.034 Q 24.877 16.893 24.877 16.531 Z M 16.412 24.877 Q 18.094 24.877 18.904 25.781 Q 19.714 26.685 19.714 28.084 Q 19.714 29.625 18.653 30.662 Q 17.591 31.700 16.004 31.700 Q 14.274 31.700 13.103 30.482 Q 11.931 29.263 11.931 26.779 Q 11.931 25.175 12.340 23.878 Q 12.749 22.581 13.543 21.599 Q 14.337 20.616 15.508 19.948 Q 16.679 19.280 18.205 18.934 Q 19.038 18.745 19.494 18.886 Q 19.950 19.028 20.044 19.405 Q 20.138 19.814 19.871 20.152 Q 19.604 20.490 18.802 20.726 Q 17.356 21.150 16.483 21.693 Q 15.610 22.235 15.217 22.896 Q 14.824 23.556 14.824 24.326 Q 14.824 24.594 14.966 24.735 Q 15.107 24.877 15.469 24.877 Z M 7.123 16.412 Q 7.123 18.094 6.219 18.904 Q 5.315 19.714 3.916 19.714 Q 2.375 19.714 1.338 18.653 Q 0.300 17.591 0.300 16.004 Q 0.300 14.274 1.518 13.103 Q 2.737 11.931 5.221 11.931 Q 6.825 11.931 8.122 12.340 Q 9.419 12.749 10.401 13.543 Q 11.384 14.337 12.052 15.508 Q 12.720 16.679 13.066 18.205 Q 13.255 19.038 13.114 19.494 Q 12.972 19.950 12.595 20.044 Q 12.186 20.138 11.848 19.871 Q 11.510 19.604 11.274 18.802 Q 10.850 17.356 10.307 16.483 Q 9.765 15.610 9.104 15.217 Q 8.444 14.824 7.674 14.824 Q 7.406 14.824 7.265 14.966 Q 7.123 15.107 7.123 15.469 Z"/>
</svg>
