<svg xmlns="http://www.w3.org/2000/svg" viewBox="0 0 32 32">
  <!-- Mintzo favicon — lauburu coupe optique petites tailles (canaux élargis).
       Gorri Etxea light #9B2D23, dark #D96A5B. -->
  <style>path{fill:#9B2D23}@media(prefers-color-scheme:dark){path{fill:#D96A5B}}</style>
  <path d="M 15.837 9.98 C 17.725 10.046 19.467 8.968 20.251 7.249 C 21.034 5.529 20.705 3.507 19.416 2.125 C 18.128 0.744 16.134 0.274 14.364 0.936 C 12.594 1.598 11.397 3.26 11.332 5.148 C 11.266 7.015 10.552 9.856 10.523 11.322 C 10.494 12.788 10.932 13.291 11.158 13.945 C 11.385 14.598 11.746 14.925 11.881 15.244 C 12.015 15.563 11.971 15.673 11.965 15.859 C 11.947 16.358 12.501 16.377 12.518 15.878 C 12.53 15.533 12.219 15.297 12.172 14.902 C 12.125 14.508 12.119 14.056 12.237 13.51 C 12.355 12.963 12.28 12.214 12.88 11.626 C 13.48 11.037 14.851 10.528 15.837 9.98 Z M 22.02 15.837 C 21.954 17.725 23.032 19.467 24.751 20.251 C 26.471 21.034 28.493 20.705 29.875 19.416 C 31.256 18.128 31.726 16.134 31.064 14.364 C 30.402 12.594 28.74 11.397 26.852 11.332 C 24.985 11.266 22.144 10.552 20.678 10.523 C 19.212 10.494 18.709 10.932 18.055 11.158 C 17.402 11.385 17.075 11.746 16.756 11.881 C 16.437 12.015 16.327 11.971 16.141 11.965 C 15.642 11.947 15.623 12.501 16.122 12.518 C 16.467 12.53 16.703 12.219 17.098 12.172 C 17.492 12.125 17.944 12.119 18.49 12.237 C 19.037 12.355 19.786 12.28 20.374 12.88 C 20.963 13.48 21.472 14.851 22.02 15.837 Z M 16.163 22.02 C 14.275 21.954 12.533 23.032 11.749 24.751 C 10.966 26.471 11.295 28.493 12.584 29.875 C 13.872 31.256 15.866 31.726 17.636 31.064 C 19.406 30.402 20.603 28.74 20.668 26.852 C 20.734 24.985 21.448 22.144 21.477 20.678 C 21.506 19.212 21.068 18.709 20.842 18.055 C 20.615 17.402 20.254 17.075 20.119 16.756 C 19.985 16.437 20.029 16.327 20.035 16.141 C 20.053 15.642 19.499 15.623 19.482 16.122 C 19.47 16.467 19.781 16.703 19.828 17.098 C 19.875 17.492 19.881 17.944 19.763 18.49 C 19.645 19.037 19.72 19.786 19.12 20.374 C 18.52 20.963 17.149 21.472 16.163 22.02 Z M 9.98 16.163 C 10.046 14.275 8.968 12.533 7.249 11.749 C 5.529 10.966 3.507 11.295 2.125 12.584 C 0.744 13.872 0.274 15.866 0.936 17.636 C 1.598 19.406 3.26 20.603 5.148 20.668 C 7.015 20.734 9.856 21.448 11.322 21.477 C 12.788 21.506 13.291 21.068 13.945 20.842 C 14.598 20.615 14.925 20.254 15.244 20.119 C 15.563 19.985 15.673 20.029 15.859 20.035 C 16.358 20.053 16.377 19.499 15.878 19.482 C 15.533 19.47 15.297 19.781 14.902 19.828 C 14.508 19.875 14.056 19.881 13.51 19.763 C 12.963 19.645 12.214 19.72 11.626 19.12 C 11.037 18.52 10.528 17.149 9.98 16.163 Z"/>
</svg>
