<svg xmlns="http://www.w3.org/2000/svg" viewBox="-10 -1620 8215 1840" role="img" aria-label="Mintzo">
  <!-- Mintzo — lockup horizontal : lauburu + « Mintzo » (Fraunces opsz 144, Black 900,
       tracking -1 %, outlines figées — aucune dépendance fonte).
       Monochrome via currentColor ; inliné dans le site : cibler .mark { fill:#9B2D23 }
       pour la variante deux tons (voir SPEC.md). -->
  <path class="mark" fill="currentColor" transform="translate(-227.5 -1837.5) scale(2.275)" d="M 495.4 363.9 C 548.7 365.8 598 335.3 620.1 286.7 C 642.3 238.2 632.9 181 596.5 142 C 560.1 102.9 503.8 89.7 453.8 108.4 C 403.8 127.1 369.9 174 368.1 227.4 C 366.4 274.7 352.9 346.7 353.6 384.6 C 354.3 422.5 365.5 437.4 372.1 454.7 C 378.7 472.1 388.7 480.3 393.2 488.8 C 397.7 497.2 398.9 500 399.1 505.3 C 399.6 514.3 409.6 513.8 409.1 504.8 C 408.6 495.5 401 489.3 399.7 478.7 C 398.4 468.1 397.7 455.4 401.2 441.2 C 404.6 427 404.7 406.3 420.4 393.4 C 436.1 380.5 470.4 373.7 495.4 363.9 Z M 636.1 495.4 C 634.2 548.7 664.7 598 713.3 620.1 C 761.8 642.3 819 632.9 858 596.5 C 897.1 560.1 910.3 503.8 891.6 453.8 C 872.9 403.8 826 369.9 772.6 368.1 C 725.3 366.4 653.3 352.9 615.4 353.6 C 577.5 354.3 562.6 365.5 545.3 372.1 C 527.9 378.7 519.7 388.7 511.2 393.2 C 502.8 397.7 500 398.9 494.7 399.1 C 485.7 399.6 486.2 409.6 495.2 409.1 C 504.5 408.6 510.7 401 521.3 399.7 C 531.9 398.4 544.6 397.7 558.8 401.2 C 573 404.6 593.7 404.7 606.6 420.4 C 619.5 436.1 626.3 470.4 636.1 495.4 Z M 504.6 636.1 C 451.3 634.2 402 664.7 379.9 713.3 C 357.7 761.8 367.1 819 403.5 858 C 439.9 897.1 496.2 910.3 546.2 891.6 C 596.2 872.9 630.1 826 631.9 772.6 C 633.6 725.3 647.1 653.3 646.4 615.4 C 645.7 577.5 634.5 562.6 627.9 545.3 C 621.3 527.9 611.3 519.7 606.8 511.2 C 602.3 502.8 601.1 500 600.9 494.7 C 600.4 485.7 590.4 486.2 590.9 495.2 C 591.4 504.5 599 510.7 600.3 521.3 C 601.6 531.9 602.3 544.6 598.8 558.8 C 595.4 573 595.3 593.7 579.6 606.6 C 563.9 619.5 529.6 626.3 504.6 636.1 Z M 363.9 504.6 C 365.8 451.3 335.3 402 286.7 379.9 C 238.2 357.7 181 367.1 142 403.5 C 102.9 439.9 89.7 496.2 108.4 546.2 C 127.1 596.2 174 630.1 227.4 631.9 C 274.7 633.6 346.7 647.1 384.6 646.4 C 422.5 645.7 437.4 634.5 454.7 627.9 C 472.1 621.3 480.3 611.3 488.8 606.8 C 497.2 602.3 500 601.1 505.3 600.9 C 514.3 600.4 513.8 590.4 504.8 590.9 C 495.5 591.4 489.3 599 478.7 600.3 C 468.1 601.6 455.4 602.3 441.2 598.8 C 427 595.4 406.3 595.3 393.4 579.6 C 380.5 563.9 373.7 529.6 363.9 504.6 Z"/>
  <path fill="currentColor" transform="translate(2240 0)" d="M891.0 -673 865.0 -625 1098.0 -1358Q1106.0 -1384 1114.5 -1392.0Q1123.0 -1400 1138.0 -1400H1594.0Q1599.0 -1400 1602.0 -1397.5Q1605.0 -1395 1605.0 -1392Q1605.0 -1388 1601.5 -1386.0Q1598.0 -1384 1590.0 -1382L1535.0 -1372Q1512.0 -1368 1501.5 -1350.5Q1491.0 -1333 1493.0 -1304L1580.0 -86Q1582.0 -53 1590.0 -43.0Q1598.0 -33 1624.0 -28L1679.0 -18Q1687.0 -17 1690.5 -15.0Q1694.0 -13 1694.0 -8Q1694.0 -5 1691.0 -2.5Q1688.0 0 1683.0 0H1049.0Q1043.0 0 1040.0 -2.5Q1037.0 -5 1037.0 -8Q1037.0 -13 1040.5 -15.0Q1044.0 -17 1053.0 -18L1107.0 -28Q1133.0 -33 1142.5 -45.0Q1152.0 -57 1150.0 -88L1069.0 -1230L1090.0 -1256L715.0 -72Q708.0 -50 701.5 -45.0Q695.0 -40 690.0 -40Q687.0 -40 683.0 -42.5Q679.0 -45 675.0 -52.0Q671.0 -59 666.0 -72L243.0 -1230L261.0 -1266L174.0 -185Q170.0 -130 214.5 -87.5Q259.0 -45 329.0 -24L349.0 -18Q356.0 -16 358.0 -14.0Q360.0 -12 360.0 -8Q360.0 -5 358.0 -2.5Q356.0 0 351.0 0H-23.0Q-28.0 0 -30.5 -2.5Q-33.0 -5 -33.0 -8Q-33.0 -13 -29.0 -15.0Q-25.0 -17 -21.0 -18L-2.0 -24Q55.0 -42 99.5 -85.0Q144.0 -128 149.0 -189L230.0 -1179Q238.0 -1272 230.0 -1319.0Q222.0 -1366 191.0 -1372L137.0 -1382Q128.0 -1384 124.5 -1386.0Q121.0 -1388 121.0 -1392Q121.0 -1400 133.0 -1400H604.0Q615.0 -1400 623.5 -1393.0Q632.0 -1386 639.0 -1368Z M2159.0 -906V-64Q2159.0 -48 2164.5 -38.5Q2170.0 -29 2183.0 -26L2221.0 -17Q2228.0 -16 2230.5 -13.5Q2233.0 -11 2233.0 -8Q2233.0 -4 2230.5 -2.0Q2228.0 0 2223.0 0H1733.0Q1729.0 0 1726.0 -2.0Q1723.0 -4 1723.0 -8Q1723.0 -11 1725.5 -13.5Q1728.0 -16 1735.0 -17L1773.0 -26Q1787.0 -29 1792.0 -38.5Q1797.0 -48 1797.0 -64V-776Q1797.0 -784 1793.0 -788.0Q1789.0 -792 1780.0 -792H1741.0Q1734.0 -792 1731.5 -794.5Q1729.0 -797 1729.0 -801Q1729.0 -805 1732.0 -807.0Q1735.0 -809 1739.0 -810L2118.0 -915Q2130.0 -918 2134.5 -919.0Q2139.0 -920 2145.0 -920Q2152.0 -920 2155.5 -916.0Q2159.0 -912 2159.0 -906ZM1974.0 -977Q1883.0 -977 1826.0 -1035.0Q1769.0 -1093 1769.0 -1177Q1769.0 -1261 1826.0 -1319.0Q1883.0 -1377 1974.0 -1377Q2066.0 -1377 2124.5 -1319.0Q2183.0 -1261 2183.0 -1177Q2183.0 -1093 2124.5 -1035.0Q2066.0 -977 1974.0 -977Z M2691.0 -906V-64Q2691.0 -48 2696.5 -38.5Q2702.0 -29 2715.0 -26L2753.0 -17Q2765.0 -14 2765.0 -8Q2765.0 0 2755.0 0H2265.0Q2261.0 0 2258.0 -2.0Q2255.0 -4 2255.0 -8Q2255.0 -11 2257.5 -13.5Q2260.0 -16 2267.0 -17L2305.0 -26Q2319.0 -29 2324.0 -38.5Q2329.0 -48 2329.0 -64V-776Q2329.0 -784 2325.0 -788.0Q2321.0 -792 2312.0 -792H2273.0Q2266.0 -792 2263.5 -794.5Q2261.0 -797 2261.0 -801Q2261.0 -805 2264.0 -807.0Q2267.0 -809 2271.0 -810L2650.0 -915Q2662.0 -918 2666.5 -919.0Q2671.0 -920 2677.0 -920Q2684.0 -920 2687.5 -916.0Q2691.0 -912 2691.0 -906ZM2661.0 -679 2647.0 -694 2687.0 -729Q2792.0 -821 2875.0 -868.5Q2958.0 -916 3023.0 -916Q3112.0 -916 3161.5 -865.5Q3211.0 -815 3223.0 -702L3291.0 -64Q3293.0 -48 3297.5 -38.5Q3302.0 -29 3315.0 -26L3353.0 -17Q3360.0 -16 3362.5 -13.5Q3365.0 -11 3365.0 -8Q3365.0 -4 3362.5 -2.0Q3360.0 0 3355.0 0H2856.0Q2846.0 0 2846.0 -8Q2846.0 -14 2858.0 -17L2896.0 -26Q2910.0 -29 2916.0 -38.5Q2922.0 -48 2920.0 -64L2867.0 -664Q2863.0 -713 2847.0 -735.5Q2831.0 -758 2795.0 -758Q2770.0 -758 2746.5 -745.5Q2723.0 -733 2699.0 -712Z M3413.0 -858 3339.0 -878Q3332.0 -880 3329.5 -882.5Q3327.0 -885 3327.0 -888Q3327.0 -891 3329.5 -893.5Q3332.0 -896 3335.0 -896H3415.0Q3418.0 -896 3421.5 -897.0Q3425.0 -898 3431.0 -902L3723.0 -1108Q3731.0 -1114 3740.0 -1118.0Q3749.0 -1122 3755.0 -1122Q3763.0 -1122 3768.0 -1116.5Q3773.0 -1111 3773.0 -1100V-290Q3773.0 -201 3805.0 -157.5Q3837.0 -114 3891.0 -114Q3909.0 -114 3925.5 -120.0Q3942.0 -126 3956.0 -140.0Q3970.0 -154 3981.0 -178.0Q3992.0 -202 3999.0 -238Q4001.0 -246 4007.0 -246.0Q4013.0 -246 4011.0 -238Q3996.0 -151 3962.5 -94.0Q3929.0 -37 3871.5 -8.5Q3814.0 20 3727.0 20Q3579.0 20 3502.0 -48.0Q3425.0 -116 3425.0 -258V-840Q3425.0 -849 3423.0 -853.0Q3421.0 -857 3413.0 -858ZM3669.0 -870 3681.0 -896H4007.0Q4012.0 -896 4014.5 -894.5Q4017.0 -893 4017.0 -888Q4017.0 -881 4009.0 -875.5Q4001.0 -870 3987.0 -870Z M4859.0 -856 4414.0 -14 4350.0 -24H4563.0Q4603.0 -24 4639.5 -46.0Q4676.0 -68 4721.0 -125.0Q4766.0 -182 4829.0 -286L4880.0 -370Q4883.0 -375 4886.5 -377.5Q4890.0 -380 4894.0 -378Q4896.0 -377 4898.0 -374.0Q4900.0 -371 4898.0 -360L4840.0 -2Q4838.0 13 4835.5 17.5Q4833.0 22 4830.0 22Q4821.0 22 4796.5 11.0Q4772.0 0 4730.0 0H4044.0Q4039.0 0 4036.0 -2.0Q4033.0 -4 4033.0 -8Q4033.0 -13 4035.5 -20.0Q4038.0 -27 4045.0 -40L4494.0 -881L4563.0 -872H4340.0Q4302.0 -872 4273.0 -856.0Q4244.0 -840 4210.5 -795.5Q4177.0 -751 4125.0 -666L4052.0 -546Q4048.0 -540 4044.5 -538.5Q4041.0 -537 4038.0 -538Q4035.0 -540 4034.0 -543.5Q4033.0 -547 4034.0 -556L4092.0 -894Q4094.0 -909 4096.5 -913.5Q4099.0 -918 4102.0 -918Q4112.0 -918 4136.5 -907.0Q4161.0 -896 4202.0 -896H4860.0Q4865.0 -896 4868.0 -894.5Q4871.0 -893 4871.0 -888Q4871.0 -883 4868.5 -876.5Q4866.0 -870 4859.0 -856Z M5429.0 -916Q5572.0 -916 5681.5 -856.0Q5791.0 -796 5853.0 -689.5Q5915.0 -583 5915.0 -444Q5915.0 -308 5850.5 -203.5Q5786.0 -99 5673.0 -39.5Q5560.0 20 5413.0 20Q5270.0 20 5160.5 -39.0Q5051.0 -98 4989.0 -202.5Q4927.0 -307 4927.0 -444Q4927.0 -580 4992.5 -686.5Q5058.0 -793 5171.5 -854.5Q5285.0 -916 5429.0 -916ZM5486.0 0Q5522.0 -5 5539.5 -56.0Q5557.0 -107 5556.0 -208.0Q5555.0 -309 5533.0 -462Q5511.0 -615 5484.5 -712.5Q5458.0 -810 5427.0 -854.5Q5396.0 -899 5359.0 -893Q5324.0 -887 5306.5 -836.0Q5289.0 -785 5291.0 -685.0Q5293.0 -585 5314.0 -432Q5336.0 -279 5362.0 -181.5Q5388.0 -84 5419.0 -39.5Q5450.0 5 5486.0 0Z"/>
</svg>
