<svg xmlns="http://www.w3.org/2000/svg" viewBox="0 0 1000 1000" role="img" aria-label="Mintzo">
  <!-- Mintzo — lauburu typographique : 4 virgules serif, rotation 90°, sens traditionnel. -->
  <path fill="currentColor" d="M 495.4 363.9 C 548.7 365.8 598 335.3 620.1 286.7 C 642.3 238.2 632.9 181 596.5 142 C 560.1 102.9 503.8 89.7 453.8 108.4 C 403.8 127.1 369.9 174 368.1 227.4 C 366.4 274.7 352.9 346.7 353.6 384.6 C 354.3 422.5 365.5 437.4 372.1 454.7 C 378.7 472.1 388.7 480.3 393.2 488.8 C 397.7 497.2 398.9 500 399.1 505.3 C 399.6 514.3 409.6 513.8 409.1 504.8 C 408.6 495.5 401 489.3 399.7 478.7 C 398.4 468.1 397.7 455.4 401.2 441.2 C 404.6 427 404.7 406.3 420.4 393.4 C 436.1 380.5 470.4 373.7 495.4 363.9 Z M 636.1 495.4 C 634.2 548.7 664.7 598 713.3 620.1 C 761.8 642.3 819 632.9 858 596.5 C 897.1 560.1 910.3 503.8 891.6 453.8 C 872.9 403.8 826 369.9 772.6 368.1 C 725.3 366.4 653.3 352.9 615.4 353.6 C 577.5 354.3 562.6 365.5 545.3 372.1 C 527.9 378.7 519.7 388.7 511.2 393.2 C 502.8 397.7 500 398.9 494.7 399.1 C 485.7 399.6 486.2 409.6 495.2 409.1 C 504.5 408.6 510.7 401 521.3 399.7 C 531.9 398.4 544.6 397.7 558.8 401.2 C 573 404.6 593.7 404.7 606.6 420.4 C 619.5 436.1 626.3 470.4 636.1 495.4 Z M 504.6 636.1 C 451.3 634.2 402 664.7 379.9 713.3 C 357.7 761.8 367.1 819 403.5 858 C 439.9 897.1 496.2 910.3 546.2 891.6 C 596.2 872.9 630.1 826 631.9 772.6 C 633.6 725.3 647.1 653.3 646.4 615.4 C 645.7 577.5 634.5 562.6 627.9 545.3 C 621.3 527.9 611.3 519.7 606.8 511.2 C 602.3 502.8 601.1 500 600.9 494.7 C 600.4 485.7 590.4 486.2 590.9 495.2 C 591.4 504.5 599 510.7 600.3 521.3 C 601.6 531.9 602.3 544.6 598.8 558.8 C 595.4 573 595.3 593.7 579.6 606.6 C 563.9 619.5 529.6 626.3 504.6 636.1 Z M 363.9 504.6 C 365.8 451.3 335.3 402 286.7 379.9 C 238.2 357.7 181 367.1 142 403.5 C 102.9 439.9 89.7 496.2 108.4 546.2 C 127.1 596.2 174 630.1 227.4 631.9 C 274.7 633.6 346.7 647.1 384.6 646.4 C 422.5 645.7 437.4 634.5 454.7 627.9 C 472.1 621.3 480.3 611.3 488.8 606.8 C 497.2 602.3 500 601.1 505.3 600.9 C 514.3 600.4 513.8 590.4 504.8 590.9 C 495.5 591.4 489.3 599 478.7 600.3 C 468.1 601.6 455.4 602.3 441.2 598.8 C 427 595.4 406.3 595.3 393.4 579.6 C 380.5 563.9 373.7 529.6 363.9 504.6 Z"/>
</svg>
