<svg xmlns="http://www.w3.org/2000/svg" viewBox="0 0 1000 1000" role="img" aria-label="Mintzo">
  <!-- Mintzo — lauburu typographique R4 « vraie virgule ».
       LA virgule = glyphe U+002C EXACT de Fraunces (fonte display de la marque),
       instance wght 900 / opsz 9 (SIL OFL 1.1) — aucune déformation :
       échelle uniforme + rotations 90° exactes autour de (500,500), têtes en
       sens horaire (lauburu traditionnel). Rayon 230, angle 0°,
       étendue 800/1000. Générateur : work/gen_lauburu_r4.py ; SPEC.md. -->
  <defs>
    <path id="virgule" d="M 489.11 280.2 Q 444.69 280.2 423.3 256.33 Q 401.92 232.45 401.92 195.5 Q 401.92 154.81 429.95 127.4 Q 457.97 100 499.91 100 Q 545.58 100 576.52 132.18 Q 607.45 164.36 607.45 229.96 Q 607.45 272.31 596.65 306.57 Q 585.86 340.82 564.89 366.77 Q 543.92 392.73 512.99 410.37 Q 482.05 428.02 441.78 437.15 Q 419.77 442.14 407.73 438.4 Q 395.69 434.66 393.2 424.7 Q 390.71 413.9 397.77 404.97 Q 404.83 396.05 426 389.82 Q 464.2 378.61 487.25 364.28 Q 510.29 349.96 520.67 332.52 Q 531.05 315.08 531.05 294.74 Q 531.05 287.68 527.31 283.94 Q 523.58 280.2 514.03 280.2 Z"/>
  </defs>
  <g fill="currentColor">
    <use href="#virgule"/>
    <use href="#virgule" transform="rotate(90 500 500)"/>
    <use href="#virgule" transform="rotate(180 500 500)"/>
    <use href="#virgule" transform="rotate(270 500 500)"/>
  </g>
</svg>
