<svg xmlns="http://www.w3.org/2000/svg" viewBox="-10 -1620 8215 1840" role="img" aria-label="Mintzo">
  <!-- Mintzo — lockup horizontal : lauburu + « Mintzo » (Fraunces opsz 144, Black 900,
       tracking -1 %, outlines figées — aucune dépendance fonte).
       Monochrome via currentColor ; inliné dans le site : cibler .mark { fill:#9B2D23 }
       pour la variante deux tons (voir SPEC.md). -->
  <path class="mark" fill="currentColor" transform="translate(-227.5 -1837.5) scale(2.275)" d="M 441.49 113.68 C 419.75 124.43 400.21 139.17 383.98 157.19 C 368.99 173.82 357.06 192.99 348.97 213.86 C 342.16 231.4 338.16 249.91 337.34 268.7 C 336.73 282.65 337.9 296.62 340.82 310.27 C 342.72 319.09 345.36 327.74 348.5 336.2 C 350.58 341.78 352.86 347.29 355.12 352.8 C 357.13 357.73 359.12 362.68 360.95 367.68 C 363.01 373.28 364.9 378.94 366.62 384.66 C 368.59 391.18 370.33 397.77 371.95 404.39 C 373.71 411.62 375.31 418.9 376.9 426.17 C 378.57 433.83 380.23 441.5 382.09 449.12 C 384.02 457.04 386.17 464.92 388.77 472.64 A 14 14 0 0 0 406.51 481.44 A 14 14 0 0 0 415.31 463.7 C 413.06 457.03 411.2 450.24 410 443.3 C 408.86 436.75 408.32 430.09 408.61 423.45 C 408.87 417.44 409.81 411.47 411.62 405.74 C 413.1 401.09 415.13 396.63 417.88 392.6 C 419.71 389.94 421.82 387.47 424.35 385.46 C 425.53 384.53 426.78 383.68 428.17 383.1 C 428.94 382.78 429.75 382.58 430.57 382.42 C 433.02 381.95 435.51 381.74 437.99 381.51 C 444 380.94 450.02 380.45 456.02 379.79 C 465.63 378.73 475.2 377.3 484.68 375.41 C 496.79 373 508.74 369.85 520.45 365.96 C 533.49 361.64 546.2 356.41 558.51 350.32 A 132 132 0 0 0 631.73 240.49 A 132 132 0 0 0 573.21 122.17 A 132 132 0 0 0 441.49 113.68 Z M 886.32 441.49 C 875.57 419.75 860.83 400.21 842.81 383.98 C 826.18 368.99 807.01 357.06 786.14 348.97 C 768.6 342.16 750.09 338.16 731.3 337.34 C 717.35 336.73 703.38 337.9 689.73 340.82 C 680.91 342.72 672.26 345.36 663.8 348.5 C 658.22 350.58 652.71 352.86 647.2 355.12 C 642.27 357.13 637.32 359.12 632.32 360.95 C 626.72 363.01 621.06 364.9 615.34 366.62 C 608.82 368.59 602.23 370.33 595.61 371.95 C 588.38 373.71 581.1 375.31 573.83 376.9 C 566.17 378.57 558.5 380.23 550.88 382.09 C 542.96 384.02 535.08 386.17 527.36 388.77 A 14 14 0 0 0 518.56 406.51 A 14 14 0 0 0 536.3 415.31 C 542.97 413.06 549.76 411.2 556.7 410 C 563.25 408.86 569.91 408.32 576.55 408.61 C 582.56 408.87 588.53 409.81 594.26 411.62 C 598.91 413.1 603.37 415.13 607.4 417.88 C 610.06 419.71 612.53 421.82 614.54 424.35 C 615.47 425.53 616.32 426.78 616.9 428.17 C 617.22 428.94 617.42 429.75 617.58 430.57 C 618.05 433.02 618.26 435.51 618.49 437.99 C 619.06 444 619.55 450.02 620.21 456.02 C 621.27 465.63 622.7 475.2 624.59 484.68 C 627 496.79 630.15 508.74 634.04 520.45 C 638.36 533.49 643.59 546.2 649.68 558.51 A 132 132 0 0 0 759.51 631.73 A 132 132 0 0 0 877.83 573.21 A 132 132 0 0 0 886.32 441.49 Z M 558.51 886.32 C 580.25 875.57 599.79 860.83 616.02 842.81 C 631.01 826.18 642.94 807.01 651.03 786.14 C 657.84 768.6 661.84 750.09 662.66 731.3 C 663.27 717.35 662.1 703.38 659.18 689.73 C 657.28 680.91 654.64 672.26 651.5 663.8 C 649.42 658.22 647.14 652.71 644.88 647.2 C 642.87 642.27 640.88 637.32 639.05 632.32 C 636.99 626.72 635.1 621.06 633.38 615.34 C 631.41 608.82 629.67 602.23 628.05 595.61 C 626.29 588.38 624.69 581.1 623.1 573.83 C 621.43 566.17 619.77 558.5 617.91 550.88 C 615.98 542.96 613.83 535.08 611.23 527.36 A 14 14 0 0 0 593.49 518.56 A 14 14 0 0 0 584.69 536.3 C 586.94 542.97 588.8 549.76 590 556.7 C 591.14 563.25 591.68 569.91 591.39 576.55 C 591.13 582.56 590.19 588.53 588.38 594.26 C 586.9 598.91 584.87 603.37 582.12 607.4 C 580.29 610.06 578.18 612.53 575.65 614.54 C 574.47 615.47 573.22 616.32 571.83 616.9 C 571.06 617.22 570.25 617.42 569.43 617.58 C 566.98 618.05 564.49 618.26 562.01 618.49 C 556 619.06 549.98 619.55 543.98 620.21 C 534.37 621.27 524.8 622.7 515.32 624.59 C 503.21 627 491.26 630.15 479.55 634.04 C 466.51 638.36 453.8 643.59 441.49 649.68 A 132 132 0 0 0 368.27 759.51 A 132 132 0 0 0 426.79 877.83 A 132 132 0 0 0 558.51 886.32 Z M 113.68 558.51 C 124.43 580.25 139.17 599.79 157.19 616.02 C 173.82 631.01 192.99 642.94 213.86 651.03 C 231.4 657.84 249.91 661.84 268.7 662.66 C 282.65 663.27 296.62 662.1 310.27 659.18 C 319.09 657.28 327.74 654.64 336.2 651.5 C 341.78 649.42 347.29 647.14 352.8 644.88 C 357.73 642.87 362.68 640.88 367.68 639.05 C 373.28 636.99 378.94 635.1 384.66 633.38 C 391.18 631.41 397.77 629.67 404.39 628.05 C 411.62 626.29 418.9 624.69 426.17 623.1 C 433.83 621.43 441.5 619.77 449.12 617.91 C 457.04 615.98 464.92 613.83 472.64 611.23 A 14 14 0 0 0 481.44 593.49 A 14 14 0 0 0 463.7 584.69 C 457.03 586.94 450.24 588.8 443.3 590 C 436.75 591.14 430.09 591.68 423.45 591.39 C 417.44 591.13 411.47 590.19 405.74 588.38 C 401.09 586.9 396.63 584.87 392.6 582.12 C 389.94 580.29 387.47 578.18 385.46 575.65 C 384.53 574.47 383.68 573.22 383.1 571.83 C 382.78 571.06 382.58 570.25 382.42 569.43 C 381.95 566.98 381.74 564.49 381.51 562.01 C 380.94 556 380.45 549.98 379.79 543.98 C 378.73 534.37 377.3 524.8 375.41 515.32 C 373 503.21 369.85 491.26 365.96 479.55 C 361.64 466.51 356.41 453.8 350.32 441.49 A 132 132 0 0 0 240.49 368.27 A 132 132 0 0 0 122.17 426.79 A 132 132 0 0 0 113.68 558.51 Z"/>
  <path fill="currentColor" transform="translate(2240 0)" d="M891.0 -673 865.0 -625 1098.0 -1358Q1106.0 -1384 1114.5 -1392.0Q1123.0 -1400 1138.0 -1400H1594.0Q1599.0 -1400 1602.0 -1397.5Q1605.0 -1395 1605.0 -1392Q1605.0 -1388 1601.5 -1386.0Q1598.0 -1384 1590.0 -1382L1535.0 -1372Q1512.0 -1368 1501.5 -1350.5Q1491.0 -1333 1493.0 -1304L1580.0 -86Q1582.0 -53 1590.0 -43.0Q1598.0 -33 1624.0 -28L1679.0 -18Q1687.0 -17 1690.5 -15.0Q1694.0 -13 1694.0 -8Q1694.0 -5 1691.0 -2.5Q1688.0 0 1683.0 0H1049.0Q1043.0 0 1040.0 -2.5Q1037.0 -5 1037.0 -8Q1037.0 -13 1040.5 -15.0Q1044.0 -17 1053.0 -18L1107.0 -28Q1133.0 -33 1142.5 -45.0Q1152.0 -57 1150.0 -88L1069.0 -1230L1090.0 -1256L715.0 -72Q708.0 -50 701.5 -45.0Q695.0 -40 690.0 -40Q687.0 -40 683.0 -42.5Q679.0 -45 675.0 -52.0Q671.0 -59 666.0 -72L243.0 -1230L261.0 -1266L174.0 -185Q170.0 -130 214.5 -87.5Q259.0 -45 329.0 -24L349.0 -18Q356.0 -16 358.0 -14.0Q360.0 -12 360.0 -8Q360.0 -5 358.0 -2.5Q356.0 0 351.0 0H-23.0Q-28.0 0 -30.5 -2.5Q-33.0 -5 -33.0 -8Q-33.0 -13 -29.0 -15.0Q-25.0 -17 -21.0 -18L-2.0 -24Q55.0 -42 99.5 -85.0Q144.0 -128 149.0 -189L230.0 -1179Q238.0 -1272 230.0 -1319.0Q222.0 -1366 191.0 -1372L137.0 -1382Q128.0 -1384 124.5 -1386.0Q121.0 -1388 121.0 -1392Q121.0 -1400 133.0 -1400H604.0Q615.0 -1400 623.5 -1393.0Q632.0 -1386 639.0 -1368Z M2159.0 -906V-64Q2159.0 -48 2164.5 -38.5Q2170.0 -29 2183.0 -26L2221.0 -17Q2228.0 -16 2230.5 -13.5Q2233.0 -11 2233.0 -8Q2233.0 -4 2230.5 -2.0Q2228.0 0 2223.0 0H1733.0Q1729.0 0 1726.0 -2.0Q1723.0 -4 1723.0 -8Q1723.0 -11 1725.5 -13.5Q1728.0 -16 1735.0 -17L1773.0 -26Q1787.0 -29 1792.0 -38.5Q1797.0 -48 1797.0 -64V-776Q1797.0 -784 1793.0 -788.0Q1789.0 -792 1780.0 -792H1741.0Q1734.0 -792 1731.5 -794.5Q1729.0 -797 1729.0 -801Q1729.0 -805 1732.0 -807.0Q1735.0 -809 1739.0 -810L2118.0 -915Q2130.0 -918 2134.5 -919.0Q2139.0 -920 2145.0 -920Q2152.0 -920 2155.5 -916.0Q2159.0 -912 2159.0 -906ZM1974.0 -977Q1883.0 -977 1826.0 -1035.0Q1769.0 -1093 1769.0 -1177Q1769.0 -1261 1826.0 -1319.0Q1883.0 -1377 1974.0 -1377Q2066.0 -1377 2124.5 -1319.0Q2183.0 -1261 2183.0 -1177Q2183.0 -1093 2124.5 -1035.0Q2066.0 -977 1974.0 -977Z M2691.0 -906V-64Q2691.0 -48 2696.5 -38.5Q2702.0 -29 2715.0 -26L2753.0 -17Q2765.0 -14 2765.0 -8Q2765.0 0 2755.0 0H2265.0Q2261.0 0 2258.0 -2.0Q2255.0 -4 2255.0 -8Q2255.0 -11 2257.5 -13.5Q2260.0 -16 2267.0 -17L2305.0 -26Q2319.0 -29 2324.0 -38.5Q2329.0 -48 2329.0 -64V-776Q2329.0 -784 2325.0 -788.0Q2321.0 -792 2312.0 -792H2273.0Q2266.0 -792 2263.5 -794.5Q2261.0 -797 2261.0 -801Q2261.0 -805 2264.0 -807.0Q2267.0 -809 2271.0 -810L2650.0 -915Q2662.0 -918 2666.5 -919.0Q2671.0 -920 2677.0 -920Q2684.0 -920 2687.5 -916.0Q2691.0 -912 2691.0 -906ZM2661.0 -679 2647.0 -694 2687.0 -729Q2792.0 -821 2875.0 -868.5Q2958.0 -916 3023.0 -916Q3112.0 -916 3161.5 -865.5Q3211.0 -815 3223.0 -702L3291.0 -64Q3293.0 -48 3297.5 -38.5Q3302.0 -29 3315.0 -26L3353.0 -17Q3360.0 -16 3362.5 -13.5Q3365.0 -11 3365.0 -8Q3365.0 -4 3362.5 -2.0Q3360.0 0 3355.0 0H2856.0Q2846.0 0 2846.0 -8Q2846.0 -14 2858.0 -17L2896.0 -26Q2910.0 -29 2916.0 -38.5Q2922.0 -48 2920.0 -64L2867.0 -664Q2863.0 -713 2847.0 -735.5Q2831.0 -758 2795.0 -758Q2770.0 -758 2746.5 -745.5Q2723.0 -733 2699.0 -712Z M3413.0 -858 3339.0 -878Q3332.0 -880 3329.5 -882.5Q3327.0 -885 3327.0 -888Q3327.0 -891 3329.5 -893.5Q3332.0 -896 3335.0 -896H3415.0Q3418.0 -896 3421.5 -897.0Q3425.0 -898 3431.0 -902L3723.0 -1108Q3731.0 -1114 3740.0 -1118.0Q3749.0 -1122 3755.0 -1122Q3763.0 -1122 3768.0 -1116.5Q3773.0 -1111 3773.0 -1100V-290Q3773.0 -201 3805.0 -157.5Q3837.0 -114 3891.0 -114Q3909.0 -114 3925.5 -120.0Q3942.0 -126 3956.0 -140.0Q3970.0 -154 3981.0 -178.0Q3992.0 -202 3999.0 -238Q4001.0 -246 4007.0 -246.0Q4013.0 -246 4011.0 -238Q3996.0 -151 3962.5 -94.0Q3929.0 -37 3871.5 -8.5Q3814.0 20 3727.0 20Q3579.0 20 3502.0 -48.0Q3425.0 -116 3425.0 -258V-840Q3425.0 -849 3423.0 -853.0Q3421.0 -857 3413.0 -858ZM3669.0 -870 3681.0 -896H4007.0Q4012.0 -896 4014.5 -894.5Q4017.0 -893 4017.0 -888Q4017.0 -881 4009.0 -875.5Q4001.0 -870 3987.0 -870Z M4859.0 -856 4414.0 -14 4350.0 -24H4563.0Q4603.0 -24 4639.5 -46.0Q4676.0 -68 4721.0 -125.0Q4766.0 -182 4829.0 -286L4880.0 -370Q4883.0 -375 4886.5 -377.5Q4890.0 -380 4894.0 -378Q4896.0 -377 4898.0 -374.0Q4900.0 -371 4898.0 -360L4840.0 -2Q4838.0 13 4835.5 17.5Q4833.0 22 4830.0 22Q4821.0 22 4796.5 11.0Q4772.0 0 4730.0 0H4044.0Q4039.0 0 4036.0 -2.0Q4033.0 -4 4033.0 -8Q4033.0 -13 4035.5 -20.0Q4038.0 -27 4045.0 -40L4494.0 -881L4563.0 -872H4340.0Q4302.0 -872 4273.0 -856.0Q4244.0 -840 4210.5 -795.5Q4177.0 -751 4125.0 -666L4052.0 -546Q4048.0 -540 4044.5 -538.5Q4041.0 -537 4038.0 -538Q4035.0 -540 4034.0 -543.5Q4033.0 -547 4034.0 -556L4092.0 -894Q4094.0 -909 4096.5 -913.5Q4099.0 -918 4102.0 -918Q4112.0 -918 4136.5 -907.0Q4161.0 -896 4202.0 -896H4860.0Q4865.0 -896 4868.0 -894.5Q4871.0 -893 4871.0 -888Q4871.0 -883 4868.5 -876.5Q4866.0 -870 4859.0 -856Z M5429.0 -916Q5572.0 -916 5681.5 -856.0Q5791.0 -796 5853.0 -689.5Q5915.0 -583 5915.0 -444Q5915.0 -308 5850.5 -203.5Q5786.0 -99 5673.0 -39.5Q5560.0 20 5413.0 20Q5270.0 20 5160.5 -39.0Q5051.0 -98 4989.0 -202.5Q4927.0 -307 4927.0 -444Q4927.0 -580 4992.5 -686.5Q5058.0 -793 5171.5 -854.5Q5285.0 -916 5429.0 -916ZM5486.0 0Q5522.0 -5 5539.5 -56.0Q5557.0 -107 5556.0 -208.0Q5555.0 -309 5533.0 -462Q5511.0 -615 5484.5 -712.5Q5458.0 -810 5427.0 -854.5Q5396.0 -899 5359.0 -893Q5324.0 -887 5306.5 -836.0Q5289.0 -785 5291.0 -685.0Q5293.0 -585 5314.0 -432Q5336.0 -279 5362.0 -181.5Q5388.0 -84 5419.0 -39.5Q5450.0 5 5486.0 0Z"/>
</svg>
