<svg xmlns="http://www.w3.org/2000/svg" viewBox="0 0 1000 1000" role="img" aria-label="Mintzo">
  <!-- Mintzo — lauburu typographique R3. UNE virgule maîtresse : tête = cercle
       parfait r132 ; queue = enveloppe de disques sur un arc de spine exact,
       rayon en décroissance monotone 132->14 (loi demi-cosinus ^1.5), caps en
       arcs exacts ; puis rotation programmatique x4 (90° autour de 500,500).
       Construction chiffrée : SPEC.md ; générateur : work/gen_lauburu.py. -->
  <defs>
    <path id="virgule" d="M 441.49 113.68 C 419.75 124.43 400.21 139.17 383.98 157.19 C 368.99 173.82 357.06 192.99 348.97 213.86 C 342.16 231.4 338.16 249.91 337.34 268.7 C 336.73 282.65 337.9 296.62 340.82 310.27 C 342.72 319.09 345.36 327.74 348.5 336.2 C 350.58 341.78 352.86 347.29 355.12 352.8 C 357.13 357.73 359.12 362.68 360.95 367.68 C 363.01 373.28 364.9 378.94 366.62 384.66 C 368.59 391.18 370.33 397.77 371.95 404.39 C 373.71 411.62 375.31 418.9 376.9 426.17 C 378.57 433.83 380.23 441.5 382.09 449.12 C 384.02 457.04 386.17 464.92 388.77 472.64 A 14 14 0 0 0 406.51 481.44 A 14 14 0 0 0 415.31 463.7 C 413.06 457.03 411.2 450.24 410 443.3 C 408.86 436.75 408.32 430.09 408.61 423.45 C 408.87 417.44 409.81 411.47 411.62 405.74 C 413.1 401.09 415.13 396.63 417.88 392.6 C 419.71 389.94 421.82 387.47 424.35 385.46 C 425.53 384.53 426.78 383.68 428.17 383.1 C 428.94 382.78 429.75 382.58 430.57 382.42 C 433.02 381.95 435.51 381.74 437.99 381.51 C 444 380.94 450.02 380.45 456.02 379.79 C 465.63 378.73 475.2 377.3 484.68 375.41 C 496.79 373 508.74 369.85 520.45 365.96 C 533.49 361.64 546.2 356.41 558.51 350.32 A 132 132 0 0 0 631.73 240.49 A 132 132 0 0 0 573.21 122.17 A 132 132 0 0 0 441.49 113.68 Z"/>
  </defs>
  <g fill="currentColor">
    <use href="#virgule"/>
    <use href="#virgule" transform="rotate(90 500 500)"/>
    <use href="#virgule" transform="rotate(180 500 500)"/>
    <use href="#virgule" transform="rotate(270 500 500)"/>
  </g>
</svg>
